# xmcd
#
# Track frame offsets: 
#        150
#        12250
#        25633
#        36055
#        48660
#        60033
#        72863
#        84190
#        97990
#        109975
#
# Disc length: 1618 seconds
#
# Revision: 0
# Processed by: cddbd v1.5.1PL2 Copyright (c) Steve Scherf et al.
# Submitted via: ExactAudioCopy v0.95b3
#
DISCID=6c06500a
DTITLE=Ray Charles - Rockin' Chair Blues
DYEAR=1900
DGENRE=Soul
TTITLE0=Goin' Dowm Slow
TTITLE1=Alone In The City
TTITLE2=Now She's Gone
TTITLE3=Rockin' Chair Blues
TTITLE4=A Sentimental Blues
TTITLE5=Can Anyone Ask For More
TTITLE6=Let's Have A Ball
TTITLE7=This Love Of Mine
TTITLE8=Can't See You Darling
TTITLE9=If I Give You My Love
EXTD=
EXTT0=
EXTT1=
EXTT2=
EXTT3=
EXTT4=
EXTT5=
EXTT6=
EXTT7=
EXTT8=
EXTT9=
PLAYORDER=
